<svg width="15" height="16" fill="none" xmlns="http://www.w3.org/2000/svg"><path d="M4.864.835h5.983a4.134 4.134 0 0 1 4.13 4.132v5.983a4.13 4.13 0 0 1-4.13 4.13H4.864a4.134 4.134 0 0 1-4.132-4.13V4.967A4.131 4.131 0 0 1 4.864.835ZM4.72 2.26a2.564 2.564 0 0 0-2.564 2.564v6.268a2.563 2.563 0 0 0 2.564 2.564h6.268a2.564 2.564 0 0 0 2.564-2.564V4.824A2.563 2.563 0 0 0 10.99 2.26H4.721Zm6.874 1.068a.89.89 0 1 1 0 1.781.89.89 0 0 1 0-1.78Zm-3.74 1.069a3.561 3.561 0 1 1 0 7.122 3.561 3.561 0 0 1 0-7.122Zm0 1.424a2.137 2.137 0 1 0 0 4.274 2.137 2.137 0 0 0 0-4.274Z" fill="#A6A6A6"/></svg>