<svg width="16" height="14" fill="none" xmlns="http://www.w3.org/2000/svg"><path d="M15.857 2.328c-.549.25-1.14.413-1.752.491a3.062 3.062 0 0 0 1.339-1.695 6.155 6.155 0 0 1-1.938.748 3.01 3.01 0 0 0-2.25-.969A3.052 3.052 0 0 0 8.213 3.96c0 .242.029.477.078.698a8.686 8.686 0 0 1-6.296-3.191 3.023 3.023 0 0 0-.413 1.531c0 1.062.534 2.002 1.36 2.536-.505 0-.976-.142-1.389-.356v.021a3.058 3.058 0 0 0 2.45 2.999 3.007 3.007 0 0 1-1.374.05 3.048 3.048 0 0 0 2.849 2.122 6.07 6.07 0 0 1-3.796 1.311 6.21 6.21 0 0 1-.727-.043 8.65 8.65 0 0 0 4.687 1.375c5.612 0 8.697-4.658 8.697-8.697 0-.135 0-.263-.007-.399a6.105 6.105 0 0 0 1.524-1.588Z" fill="#A6A6A6"/></svg>